# xmcd
#
# Track frame offsets:
#	150
#	12105
#	29899
#	50672
#	73150
#	90501
#	111008
#	134510
#	156908
#	173332
#	185885
#	203539
#	219235
#	236654
#
# Disc length: 3299 seconds
#
# Revision: 0
# Processed by: cddbd v1.5.1PL2 Copyright (c) Steve Scherf et al.
# Submitted via: EasyCDDAExtractor 4.5.0.2
#
DISCID=c30ce10e
DTITLE=Chris Musolf - The Fifty Year Dream
DYEAR=1900
DGENRE=
TTITLE0=Asphalt
TTITLE1=Intolerable
TTITLE2=SingleHanded
TTITLE3=Tempted by the Devil
TTITLE4=The Fifty Year Dream
TTITLE5=Empty
TTITLE6=The Prisoner
TTITLE7=Simple
TTITLE8=Can't You See
TTITLE9=Mommies Lullaby
TTITLE10=No Regrets
TTITLE11=Time for You
TTITLE12=Rainbow Girl
TTITLE13=Careful What You Ask For
EXTD=
EXTT0=
EXTT1=
EXTT2=
EXTT3=
EXTT4=
EXTT5=
EXTT6=
EXTT7=
EXTT8=
EXTT9=
EXTT10=
EXTT11=
EXTT12=
EXTT13=
PLAYORDER=
